<svg xmlns="http://www.w3.org/2000/svg" data-name="The Egg" viewBox="0 0 100 125" x="0px" y="0px"><title>ICON_ALBANY EGG</title><path d="M94.11,46.51a.52.52,0,0,1-.21,0C66.55,37,12.15,35.24,6,35.07a.63.63,0,0,1-.19-1.23c14.38-4.88,35.85-3.05,36.07-3,30.79,2.63,49.14,12.56,52.5,14.53a.61.61,0,0,1,.26.8A.63.63,0,0,1,94.11,46.51ZM9.21,34c12.5.45,53.78,2.45,79.47,9.63C80.77,40,64.8,33.91,41.82,31.94,41.62,31.92,23.17,30.36,9.21,34Z"/><path d="M69.42,62.27l-.22-1.12C75,60,88.89,56.33,93.86,46.39c-2.81-1.24-22.18-8.65-87.4-11.3,1,3.67,6.33,18.64,27.44,24.72l-.32,1.09C11.25,54.48,6.09,38.26,5.28,35.08a.88.88,0,0,1,.18-.8.91.91,0,0,1,.75-.34C72.46,36.61,91.42,44,94.55,45.45A.88.88,0,0,1,95,46a.92.92,0,0,1,0,.71C89.89,57.24,75.41,61.1,69.42,62.27Z"/><path d="M46.18,66.88H38l-7.4-9.73.83-.77c.39.34,2.22,1.23,10.68,2L42,59.48a58.92,58.92,0,0,1-9.21-1.32l5.76,7.58h7.63Z"/><path d="M69.88,69.29H47.19l-8.93-16,1.31.36c.17,0,17.19,4.59,29.7,3.6l.61,0Zm-22-1.15H68.74V58.45c-10.59.67-24-2.34-28.17-3.36Z"/><text x="0" y="115" fill="#000000" font-size="5px" font-weight="bold" font-family="'Helvetica Neue', Helvetica, Arial-Unicode, Arial, Sans-serif">Created by Brittany Trayah</text><text x="0" y="120" fill="#000000" font-size="5px" font-weight="bold" font-family="'Helvetica Neue', Helvetica, Arial-Unicode, Arial, Sans-serif">from the Noun Project</text></svg>